<svg width="41" height="40" viewBox="0 0 41 40" fill="none" xmlns="http://www.w3.org/2000/svg">
<path d="M25.6051 0C33.7925 0 40.4303 6.6378 40.4303 14.8252V24.7266C40.4303 32.914 33.7925 39.5518 25.6051 39.5518H15.3551C7.16788 39.5515 0.530884 32.9138 0.530884 24.7266V14.8252C0.530884 6.63792 7.16788 0.000206404 15.3551 0H25.6051Z" fill="#FF9871"/>
<g clip-path="url(#clip0_288_16470)">
<path d="M20.9722 10C15.4522 10 10.9822 14.48 10.9822 20C10.9822 25.52 15.4522 30 20.9722 30C26.5022 30 30.9822 25.52 30.9822 20C30.9822 14.48 26.5022 10 20.9722 10ZM20.9822 28C16.5622 28 12.9822 24.42 12.9822 20C12.9822 15.58 16.5622 12 20.9822 12C25.4022 12 28.9822 15.58 28.9822 20C28.9822 24.42 25.4022 28 20.9822 28ZM21.4822 15H19.9822V21L25.2322 24.15L25.9822 22.92L21.4822 20.25V15Z" fill="white"/>
</g>
<defs>
<clipPath id="clip0_288_16470">
<rect width="24" height="24" fill="white" transform="translate(8.98218 8)"/>
</clipPath>
</defs>
</svg>
