<svg width="40" height="40" viewBox="0 0 40 40" fill="none" xmlns="http://www.w3.org/2000/svg">
<path d="M25.066 0C33.2534 0 39.8912 6.6378 39.8912 14.8252V24.7266C39.8912 32.914 33.2534 39.5518 25.066 39.5518H14.816C6.62882 39.5515 -0.00817871 32.9138 -0.00817871 24.7266V14.8252C-0.00817871 6.63792 6.62882 0.000206404 14.816 0H25.066Z" fill="#8280FF"/>
<path d="M15.2691 19.4992H20.0691M17.1891 14.6992V24.2992M15.2691 24.2992H20.0691C21.3421 24.2992 22.563 23.7935 23.4632 22.8933C24.3634 21.9932 24.8691 20.7723 24.8691 19.4992C24.8691 18.2262 24.3634 17.0053 23.4632 16.1051C22.563 15.2049 21.3421 14.6992 20.0691 14.6992H15.2691" stroke="white" stroke-linecap="round" stroke-linejoin="round"/>
<circle cx="20.0691" cy="19.5" r="11.25" stroke="white" stroke-width="1.5"/>
</svg>
