<svg width="40" height="40" viewBox="0 0 40 40" fill="none" xmlns="http://www.w3.org/2000/svg">
<path d="M25.1748 0C33.3622 0 40 6.6378 40 14.8252V24.7266C40 32.914 33.3622 39.5518 25.1748 39.5518H14.8242C6.63699 39.5516 0 32.9138 0 24.7266V14.8252C0 6.63792 6.63699 0.000206263 14.8242 0H25.1748Z" fill="#8280FF"/>
<path d="M10.069 16.3235L20.1279 10.5L30.1867 16.3235" stroke="white" stroke-width="1.2" stroke-linecap="round" stroke-linejoin="round"/>
<path d="M14.8337 28.5V27.4412C14.8337 24.5173 17.204 22.1471 20.1279 22.1471C23.0517 22.1471 25.422 24.5173 25.422 27.4412V28.5" stroke="white" stroke-width="1.2"/>
<path d="M20.1279 22.1471C21.8822 22.1471 23.3044 20.7249 23.3044 18.9706C23.3044 17.2163 21.8822 15.7941 20.1279 15.7941C18.3736 15.7941 16.9514 17.2163 16.9514 18.9706C16.9514 20.7249 18.3736 22.1471 20.1279 22.1471Z" stroke="white" stroke-width="1.2" stroke-linecap="round" stroke-linejoin="round"/>
</svg>
