<svg width="41" height="40" viewBox="0 0 41 40" fill="none" xmlns="http://www.w3.org/2000/svg">
<path d="M25.2557 0C33.4431 0 40.0809 6.6378 40.0809 14.8252V24.7266C40.0809 32.914 33.4431 39.5518 25.2557 39.5518H15.0057C6.81852 39.5515 0.181519 32.9138 0.181519 24.7266V14.8252C0.181519 6.63792 6.81851 0.000206404 15.0057 0H25.2557Z" fill="#D6A56D"/>
<path d="M29.3839 23.451C29.1159 23.2253 28.7619 23.1317 28.4205 23.191L21.2486 24.4383L19.2116 22.4012C19.1439 22.3332 19.0521 22.2952 18.9559 22.2952H15.3396C15.3396 22.0956 15.1779 21.9336 14.9779 21.9336H13.5314H11V22.6569H13.1698V27.7197H11V28.443H13.5314H14.9779C15.1779 28.443 15.3396 28.281 15.3396 28.0813H16.3391L20.2053 30.0146C20.3728 30.0982 20.5536 30.1401 20.7344 30.1397C20.9398 30.1397 21.1456 30.0859 21.3296 29.9785L29.219 25.3763C29.5803 25.1651 29.8049 24.7738 29.8049 24.3554C29.8049 24.0057 29.6512 23.6759 29.3839 23.451ZM14.6163 27.7197H13.8931V22.6569H14.6163V27.7197ZM28.8541 24.7518L20.9651 29.3536C20.8313 29.4317 20.6682 29.4371 20.529 29.3677L16.5865 27.3964C16.5362 27.3711 16.4805 27.3581 16.4245 27.3581H15.3396V23.0185H18.8062L21.6555 25.8674C21.7802 25.9925 21.849 26.1585 21.849 26.335C21.849 26.6999 21.5524 26.9964 21.1879 26.9964C21.0139 26.9964 20.8436 26.9259 20.7203 26.8026L18.8499 24.9326L18.3386 25.444L20.209 27.314C20.4704 27.5758 20.8176 27.7197 21.1879 27.7197C21.9509 27.7197 22.5722 27.0988 22.5722 26.335C22.5722 25.9654 22.4283 25.6179 22.1668 25.3561L21.8743 25.0635L28.5442 23.9034C28.6787 23.8799 28.8143 23.9171 28.9181 24.0043C29.0219 24.0918 29.0816 24.2198 29.0816 24.3554C29.0816 24.5178 28.9944 24.6697 28.8541 24.7518Z" fill="white"/>
<path d="M23.3897 13.7352L19.7733 17.7129L20.3087 18.1997L23.9251 14.222L23.3897 13.7352Z" fill="white"/>
<path d="M20.4024 15.9667C21.0005 15.9667 21.4873 15.4799 21.4873 14.8818C21.4873 14.2836 21.0005 13.7969 20.4024 13.7969C19.8043 13.7969 19.3175 14.2836 19.3175 14.8818C19.3175 15.4799 19.8043 15.9667 20.4024 15.9667ZM20.4024 14.5201C20.602 14.5201 20.764 14.6825 20.764 14.8818C20.764 15.081 20.602 15.2434 20.4024 15.2434C20.2028 15.2434 20.0408 15.081 20.0408 14.8818C20.0408 14.6825 20.2028 14.5201 20.4024 14.5201Z" fill="white"/>
<path d="M22.2106 17.0517C22.2106 17.6498 22.6973 18.1366 23.2955 18.1366C23.8936 18.1366 24.3804 17.6498 24.3804 17.0517C24.3804 16.4536 23.8936 15.9668 23.2955 15.9668C22.6973 15.9668 22.2106 16.4536 22.2106 17.0517ZM23.6571 17.0517C23.6571 17.251 23.4951 17.4133 23.2955 17.4133C23.0958 17.4133 22.9338 17.251 22.9338 17.0517C22.9338 16.8524 23.0958 16.6901 23.2955 16.6901C23.4951 16.6901 23.6571 16.8524 23.6571 17.0517Z" fill="white"/>
<path d="M21.5865 23.6292C21.6552 23.7011 21.7499 23.742 21.849 23.742C21.9481 23.742 22.0428 23.7011 22.1116 23.6292L27.8463 17.587C29.4888 15.8563 29.4888 13.0402 27.8463 11.3098C27.0446 10.4651 25.9774 10 24.8412 10C23.7107 10 22.6489 10.46 21.849 11.2961C21.0491 10.46 19.9873 10 18.8569 10C17.7206 10 16.6534 10.4651 15.8517 11.3098C14.2092 13.0406 14.2092 15.8566 15.8517 17.587L21.5865 23.6292ZM16.3764 11.8078C17.04 11.1084 17.921 10.7233 18.8569 10.7233C19.7931 10.7233 20.6737 11.1084 21.3373 11.8078L21.5865 12.0707C21.7235 12.2143 21.9741 12.2143 22.1112 12.0707L22.3604 11.8078C23.0243 11.1084 23.9052 10.7233 24.8412 10.7233C25.7771 10.7233 26.6576 11.1084 27.3212 11.8078C28.7034 13.2637 28.7034 15.6331 27.3212 17.0891L21.849 22.8549L16.3764 17.0891C14.9943 15.6331 14.9943 13.2637 16.3764 11.8078Z" fill="white"/>
<path d="M20.764 18.6797H20.0408V19.403H20.764V18.6797Z" fill="white"/>
<path d="M22.2106 18.6797H21.4873V19.403H22.2106V18.6797Z" fill="white"/>
<path d="M23.6571 18.6797H22.9338V19.403H23.6571V18.6797Z" fill="white"/>
</svg>
