<svg width="40" height="40" viewBox="0 0 40 40" fill="none" xmlns="http://www.w3.org/2000/svg">
<path d="M25.1748 0C33.3622 0 40 6.6378 40 14.8252V24.7266C40 32.914 33.3622 39.5518 25.1748 39.5518H14.8242C6.63699 39.5516 0 32.9138 0 24.7266V14.8252C0 6.63792 6.63699 0.000206263 14.8242 0H25.1748Z" fill="#FF9871"/>
<path d="M10.0784 15.9175L19.6849 11.1332C19.8534 11.0493 20.0514 11.0493 20.2199 11.1332L29.8263 15.9175C30.2697 16.1383 30.2697 16.7708 29.8263 16.9916L20.2199 21.7759C20.0514 21.8598 19.8534 21.8598 19.6849 21.7759L10.0784 16.9916C9.63506 16.7708 9.63506 16.1383 10.0784 15.9175Z" stroke="white" stroke-linecap="round" stroke-linejoin="round"/>
<path d="M32 20.8182L32 17L29.8096 15.9091" stroke="white" stroke-linecap="round" stroke-linejoin="round"/>
<path d="M12.2858 18.0909V24.1078C12.2858 24.8811 12.7316 25.5852 13.4307 25.9158L19.0974 28.5956C19.6387 28.8516 20.2662 28.8516 20.8075 28.5956L26.4741 25.9158C27.1732 25.5852 27.6191 24.8811 27.6191 24.1078V18.0909" stroke="white" stroke-linecap="round" stroke-linejoin="round"/>
</svg>
